<svg width="553" height="416" viewBox="0 0 553 416" fill="none" xmlns="http://www.w3.org/2000/svg">
<rect width="553" height="416" fill="#E5E5E5"/>
<g clip-path="url(#clip0)">
<rect width="553" height="416" fill="white"/>
<path d="M166.748 389.243H181.216L282.495 42H268.027L166.748 389.243Z" fill="#70C1B3"/>
<path d="M105.257 331.369C107.254 331.369 108.874 329.75 108.874 327.752C108.874 325.755 107.254 324.135 105.257 324.135C103.259 324.135 101.639 325.755 101.639 327.752C101.639 329.75 103.259 331.369 105.257 331.369Z" fill="#247BA0"/>
<path d="M76.3197 331.369C78.3174 331.369 79.9368 329.75 79.9368 327.752C79.9368 325.755 78.3174 324.135 76.3197 324.135C74.322 324.135 72.7026 325.755 72.7026 327.752C72.7026 329.75 74.322 331.369 76.3197 331.369Z" fill="#247BA0"/>
<path d="M105.257 316.901C107.254 316.901 108.874 315.282 108.874 313.284C108.874 311.286 107.254 309.667 105.257 309.667C103.259 309.667 101.639 311.286 101.639 313.284C101.639 315.282 103.259 316.901 105.257 316.901Z" fill="#247BA0"/>
<path d="M119.725 331.369C121.723 331.369 123.342 329.75 123.342 327.752C123.342 325.755 121.723 324.135 119.725 324.135C117.727 324.135 116.108 325.755 116.108 327.752C116.108 329.75 117.727 331.369 119.725 331.369Z" fill="#247BA0"/>
<path d="M119.725 316.901C121.723 316.901 123.342 315.282 123.342 313.284C123.342 311.286 121.723 309.667 119.725 309.667C117.727 309.667 116.108 311.286 116.108 313.284C116.108 315.282 117.727 316.901 119.725 316.901Z" fill="#247BA0"/>
<path d="M134.193 316.901C136.191 316.901 137.811 315.282 137.811 313.284C137.811 311.286 136.191 309.667 134.193 309.667C132.196 309.667 130.576 311.286 130.576 313.284C130.576 315.282 132.196 316.901 134.193 316.901Z" fill="#247BA0"/>
<path d="M134.193 302.433C136.191 302.433 137.811 300.813 137.811 298.815C137.811 296.818 136.191 295.198 134.193 295.198C132.196 295.198 130.576 296.818 130.576 298.815C130.576 300.813 132.196 302.433 134.193 302.433Z" fill="#247BA0"/>
<path d="M134.193 331.369C136.191 331.369 137.811 329.75 137.811 327.752C137.811 325.755 136.191 324.135 134.193 324.135C132.196 324.135 130.576 325.755 130.576 327.752C130.576 329.75 132.196 331.369 134.193 331.369Z" fill="#247BA0"/>
<path d="M90.788 331.369C92.7857 331.369 94.4051 329.75 94.4051 327.752C94.4051 325.755 92.7857 324.135 90.788 324.135C88.7903 324.135 87.1709 325.755 87.1709 327.752C87.1709 329.75 88.7903 331.369 90.788 331.369Z" fill="#247BA0"/>
<path d="M90.788 316.901C92.7857 316.901 94.4051 315.282 94.4051 313.284C94.4051 311.286 92.7857 309.667 90.788 309.667C88.7903 309.667 87.1709 311.286 87.1709 313.284C87.1709 315.282 88.7903 316.901 90.788 316.901Z" fill="#247BA0"/>
<path d="M61.8511 331.369C63.8488 331.369 65.4682 329.75 65.4682 327.752C65.4682 325.755 63.8488 324.135 61.8511 324.135C59.8534 324.135 58.234 325.755 58.234 327.752C58.234 329.75 59.8534 331.369 61.8511 331.369Z" fill="#247BA0"/>
<path d="M119.725 302.433C121.723 302.433 123.342 300.813 123.342 298.815C123.342 296.818 121.723 295.198 119.725 295.198C117.727 295.198 116.108 296.818 116.108 298.815C116.108 300.813 117.727 302.433 119.725 302.433Z" fill="#247BA0"/>
<path d="M105.257 302.433C107.254 302.433 108.874 300.813 108.874 298.815C108.874 296.818 107.254 295.198 105.257 295.198C103.259 295.198 101.639 296.818 101.639 298.815C101.639 300.813 103.259 302.433 105.257 302.433Z" fill="#247BA0"/>
<path d="M90.788 302.433C92.7857 302.433 94.4051 300.813 94.4051 298.815C94.4051 296.818 92.7857 295.198 90.788 295.198C88.7903 295.198 87.1709 296.818 87.1709 298.815C87.1709 300.813 88.7903 302.433 90.788 302.433Z" fill="#247BA0"/>
<path d="M134.193 287.964C136.191 287.964 137.811 286.345 137.811 284.347C137.811 282.349 136.191 280.73 134.193 280.73C132.196 280.73 130.576 282.349 130.576 284.347C130.576 286.345 132.196 287.964 134.193 287.964Z" fill="#247BA0"/>
<path d="M134.193 273.496C136.191 273.496 137.811 271.876 137.811 269.878C137.811 267.881 136.191 266.261 134.193 266.261C132.196 266.261 130.576 267.881 130.576 269.878C130.576 271.876 132.196 273.496 134.193 273.496Z" fill="#247BA0"/>
<path d="M119.725 273.496C121.723 273.496 123.342 271.876 123.342 269.878C123.342 267.881 121.723 266.261 119.725 266.261C117.727 266.261 116.108 267.881 116.108 269.878C116.108 271.876 117.727 273.496 119.725 273.496Z" fill="#247BA0"/>
<path d="M134.193 259.027C136.191 259.027 137.811 257.408 137.811 255.41C137.811 253.412 136.191 251.793 134.193 251.793C132.196 251.793 130.576 253.412 130.576 255.41C130.576 257.408 132.196 259.027 134.193 259.027Z" fill="#247BA0"/>
<path d="M119.725 287.964C121.723 287.964 123.342 286.345 123.342 284.347C123.342 282.349 121.723 280.73 119.725 280.73C117.727 280.73 116.108 282.349 116.108 284.347C116.108 286.345 117.727 287.964 119.725 287.964Z" fill="#247BA0"/>
<path d="M105.257 287.964C107.254 287.964 108.874 286.345 108.874 284.347C108.874 282.349 107.254 280.73 105.257 280.73C103.259 280.73 101.639 282.349 101.639 284.347C101.639 286.345 103.259 287.964 105.257 287.964Z" fill="#247BA0"/>
<path d="M76.3197 316.901C78.3174 316.901 79.9368 315.282 79.9368 313.284C79.9368 311.286 78.3174 309.667 76.3197 309.667C74.322 309.667 72.7026 311.286 72.7026 313.284C72.7026 315.282 74.322 316.901 76.3197 316.901Z" fill="#247BA0"/>
<path d="M51 237.324V324.135L137.811 237.324V186.685H51V237.324Z" fill="#9BC3D3"/>
<path d="M137.811 99.8738H51V186.685H137.811V99.8738Z" fill="#247BA0"/>
<path d="M412.712 99.8738C348.786 99.8738 296.964 151.696 296.964 215.622C296.964 279.547 348.786 331.369 412.712 331.369C476.637 331.369 528.459 279.547 528.459 215.622C528.459 151.696 476.637 99.8738 412.712 99.8738ZM412.712 295.198C368.763 295.198 333.135 259.57 333.135 215.622C333.135 171.673 368.763 136.045 412.712 136.045C456.66 136.045 492.288 171.673 492.288 215.622C492.288 259.57 456.66 295.198 412.712 295.198Z" fill="#F25F5C"/>
<path d="M412.712 146.896C374.756 146.896 343.986 177.666 343.986 215.622C343.986 253.577 374.756 284.347 412.712 284.347C450.667 284.347 481.437 253.577 481.437 215.622C481.437 177.666 450.667 146.896 412.712 146.896ZM412.712 235.38C401.325 235.38 392.094 226.149 392.094 214.762C392.094 203.376 401.325 194.145 412.712 194.145C424.098 194.145 433.329 203.376 433.329 214.762C433.329 226.149 424.098 235.38 412.712 235.38Z" fill="#F25F5C"/>
<path d="M119 255L50.5 186.5H137.5V237L119 255Z" fill="url(#paint0_linear)" fill-opacity="0.5"/>
<mask id="mask0" mask-type="alpha" maskUnits="userSpaceOnUse" x="354" y="157" width="200" height="200">
<rect x="354" y="270.844" width="161" height="121.116" transform="rotate(-45 354 270.844)" fill="#202124"/>
</mask>
<g mask="url(#mask0)">
<path d="M412.748 100C348.822 100 297 151.822 297 215.748C297 279.674 348.822 331.496 412.748 331.496C476.674 331.496 528.496 279.674 528.496 215.748C528.496 151.822 476.674 100 412.748 100ZM412.748 295.324C368.799 295.324 333.171 259.697 333.171 215.748C333.171 171.799 368.799 136.171 412.748 136.171C456.697 136.171 492.324 171.799 492.324 215.748C492.324 259.697 456.697 295.324 412.748 295.324Z" fill="url(#paint1_linear)" fill-opacity="0.5"/>
</g>
</g>
<defs>
<linearGradient id="paint0_linear" x1="53.5" y1="188.5" x2="120.5" y2="221" gradientUnits="userSpaceOnUse">
<stop stop-opacity="0.4"/>
<stop offset="1" stop-opacity="0.1"/>
</linearGradient>
<linearGradient id="paint1_linear" x1="413" y1="216" x2="494.5" y2="289" gradientUnits="userSpaceOnUse">
<stop stop-opacity="0.4"/>
<stop offset="1" stop-opacity="0.1"/>
</linearGradient>
<clipPath id="clip0">
<rect width="553" height="416" fill="white"/>
</clipPath>
</defs>
</svg>
