<svg width="221" height="74" viewBox="0 0 221 74" fill="none" xmlns="http://www.w3.org/2000/svg">
<path d="M33.1311 57.2091C34.4699 57.099 35.728 56.7805 36.8699 56.1809C37.3641 55.9214 37.8169 55.5007 38.1772 55.0033C39.4825 53.2006 39.3388 51.156 39.2345 49.1154C39.2167 48.7714 39.1478 48.4273 39.0829 48.0872C39.0415 47.8651 39.1183 47.7235 39.3073 47.6174C39.6952 47.3972 39.9295 47.059 40.1362 46.6619C40.5713 45.8264 40.8942 44.9555 41.2328 44.0787C41.7093 42.8441 41.8668 41.5505 42.2015 40.2923C42.7744 38.1436 42.8591 35.924 43.1938 33.7438C43.432 32.1908 43.4241 30.6377 43.5344 29.0866C43.5934 28.2727 43.3001 27.6219 42.7862 27.0381C42.4751 26.6842 41.536 26.5977 41.0871 26.9555C40.7741 27.2052 40.4177 27.3487 40.0948 27.5649C38.8249 28.4142 37.5393 29.2399 36.356 30.213C35.5173 30.9031 34.6077 31.5223 33.832 32.2753C33.0917 32.9928 32.3042 33.6652 31.5698 34.3926C30.861 35.0964 30.1956 35.8434 29.5242 36.5748C29.0517 37.0898 28.6087 37.6757 28.3409 38.3461C28.2425 38.5918 28.1106 38.7157 27.8389 38.6508C27.7562 38.6311 27.6637 38.6233 27.579 38.637C26.8604 38.753 26.4843 38.5092 26.0965 37.8094C25.6082 36.9306 24.9053 36.1442 24.1631 35.4109C23.7614 35.0138 23.3559 34.5931 22.966 34.1763C22.5034 33.6829 21.9403 33.27 21.4717 32.7904C21.0287 32.3362 20.4597 32.0472 20.064 31.5381C19.7431 31.1252 19.2528 30.8559 18.8374 30.5492C18.1523 30.044 17.471 29.5191 16.78 29.0236C15.7759 28.3022 14.7147 27.679 13.7047 26.9712C13.0865 26.5387 12.2773 26.7117 11.7752 27.2779C11.3007 27.8126 11.1787 28.4122 11.2082 29.0826C11.2653 30.3506 11.218 31.6344 11.4012 32.8828C11.7339 35.1436 11.8323 37.4437 12.356 39.6691C12.6514 40.9234 12.8266 42.2111 13.2499 43.4319C13.6811 44.6803 14.126 45.9306 14.8151 47.0708C14.8604 47.1455 14.9057 47.2458 14.9765 47.2733C15.8645 47.6095 15.5987 48.3153 15.5298 48.9601C15.3742 50.4011 15.3605 51.8402 15.7208 53.2576C15.957 54.1855 16.4551 54.9503 17.1482 55.6226C17.8924 56.3421 18.8098 56.6056 19.7628 56.867C20.3593 57.0302 20.95 57.1698 21.6233 57.1953C20.9007 58.1036 20.1742 58.9588 19.5167 59.8651C19.0756 60.4706 18.6228 61.0721 18.1838 61.6757C17.662 62.3913 17.2033 63.1442 16.7268 63.8815C16.1441 64.7818 15.6656 65.753 15.2266 66.7419C14.8742 67.5361 14.6477 68.3421 14.4981 69.1855C14.2422 70.6246 14.5749 71.8828 15.6223 72.9306C15.7641 73.0721 15.9255 73.2078 15.9393 73.4358C15.9137 73.4476 15.8861 73.4732 15.8586 73.4732C11.6591 73.4693 7.46153 73.4575 3.26202 73.4653C2.53749 73.4673 1.99213 73.1233 1.48811 72.6809C1.16325 72.3978 1.10025 71.1711 1.38376 70.7936C1.91928 70.082 2.61034 69.561 3.39984 69.1324C4.38622 68.5957 5.42379 68.175 6.44364 67.7189C6.94373 67.4948 7.48909 67.3729 8.04036 67.196C7.41034 66.1462 6.75866 65.1219 6.14635 64.078C5.08712 62.2753 4.21493 60.4037 3.46284 58.4575C3.08876 57.4883 2.90566 56.4817 2.57884 55.5125C2.26186 54.5787 2.17917 53.6351 2.18507 52.6737C2.18901 51.6829 2.53159 51.2917 3.51797 51.1285C3.86054 51.0715 3.99836 50.9122 3.9767 50.5702C3.92355 49.7641 3.37031 48.6416 2.3662 48.3467C1.20657 48.0066 0.905335 47.4208 0.842332 46.2275C0.757673 44.6547 0.692701 43.0564 1.31288 41.5505C1.75193 40.487 2.01575 39.3546 2.60246 38.35C2.72256 38.1436 2.78163 37.8998 2.87022 37.6757C3.22855 36.7714 3.68532 35.9083 4.10468 35.0335C4.67761 33.8421 5.28401 32.6586 5.916 31.4948C6.55784 30.3153 7.18392 29.1259 7.84348 27.9542C8.41641 26.9358 8.98343 25.9136 9.55636 24.8952C10.0525 24.0105 10.5112 23.1082 10.9975 22.2196C11.1334 21.9719 11.1491 21.6888 11.218 21.4214C11.5823 20.0256 11.8894 18.6121 12.3383 17.2438C12.6632 16.253 12.8896 15.2248 13.2971 14.2714C13.559 13.6541 13.6968 13.0033 13.9587 12.3959C14.4292 11.3087 14.8525 10.1921 15.6282 9.26611C16.0614 8.74907 16.4984 8.23596 16.9434 7.71106C16.272 7.45549 15.7129 6.92666 15.0573 6.5492C14.7777 6.388 14.6891 6.03413 14.6418 5.73924C14.506 4.87817 14.7167 4.10163 15.2069 3.35654C15.6125 2.73924 16.0417 2.13963 16.5693 1.64422C17.0044 1.23728 17.3943 0.718271 18.0125 0.551168C18.5007 0.419451 18.8965 0.547236 19.3277 0.881443C20.3003 1.63439 20.8555 2.63701 21.3614 3.71434C21.5327 4.07607 21.7552 4.42207 21.8871 4.80739C21.9521 4.99612 22.0623 5.03347 22.2455 4.98236C23.2121 4.71106 24.2182 4.62849 25.1987 4.41814C26.0788 4.22941 27.0002 4.28446 27.9058 4.29625C29.3549 4.31395 30.7587 4.63243 32.1624 4.93125C32.6507 5.03544 32.8102 4.90176 33.0228 4.46729C33.4126 3.66716 33.7316 2.83164 34.2888 2.10228C34.6569 1.62063 35.0448 1.19403 35.5055 0.802806C35.98 0.399792 36.7911 0.42928 37.2696 0.836227C37.7874 1.27659 38.3209 1.72286 38.7403 2.23596C39.4254 3.07541 40.1401 3.94829 40.1618 5.13177C40.1756 5.82378 40.0121 6.40372 39.3408 6.78315C38.8092 7.08393 38.3445 7.49874 37.7736 7.72679C38.382 8.36572 38.9805 9.00661 39.4648 9.7458C40.276 10.9804 40.713 12.3683 41.2249 13.7386C41.7014 15.0164 42.0361 16.3356 42.5263 17.6056C42.8039 18.3271 42.865 19.1311 43.1288 19.8605C43.4418 20.7333 43.4123 21.7104 43.8888 22.5125C44.3278 23.2517 44.6015 24.0774 45.135 24.7655C45.3103 24.9915 45.387 25.2904 45.5249 25.5499C46.1785 26.7805 46.903 27.9719 47.5488 29.2084C48.1611 30.3821 48.799 31.542 49.4133 32.7157C50.0295 33.8913 50.6222 35.0728 51.197 36.2681C51.9078 37.7445 52.5221 39.2524 53.1324 40.772C53.9219 42.7399 54.231 44.7039 53.8333 46.7897C53.6679 47.6586 53.1423 48.158 52.3409 48.3703C51.3782 48.6259 50.7993 49.8074 50.7738 50.6193C50.7639 50.9516 50.9273 51.0735 51.2305 51.1265C52.2189 51.2976 52.526 51.6829 52.5752 52.6717C52.6363 53.9319 52.2642 55.1134 51.9865 56.3185C51.6873 57.618 51.1695 58.8349 50.6733 60.0538C50.187 61.2491 49.5885 62.405 48.9644 63.5354C48.3167 64.7111 47.5843 65.8395 46.8794 66.9817C46.844 67.0407 46.7219 67.0446 46.714 67.1626C46.8243 67.3159 47.0192 67.2884 47.1747 67.3375C48.7242 67.829 50.191 68.5092 51.6223 69.2661C52.2957 69.6219 52.8824 70.1213 53.3391 70.7465C53.7053 71.2497 53.5478 72.3585 53.097 72.791C52.6087 73.2589 52.0515 73.4653 51.3821 73.4653C47.2003 73.4594 43.0205 73.4614 38.819 73.4614C38.7974 73.2609 38.9214 73.1311 39.0514 73.0073C40.2208 71.8906 40.5181 70.5223 40.2287 68.9791C39.9452 67.4653 39.266 66.1187 38.5375 64.7799C38.0866 63.9522 37.5865 63.1482 37.0589 62.3834C36.6809 61.8369 36.3048 61.2648 35.8756 60.7379C35.3834 60.1344 34.905 59.5014 34.4423 58.8664C34.0269 58.3061 33.5839 57.7812 33.1311 57.2091Z" fill="#9FA09F"/>
<path d="M98.6792 36.7143C99.3605 37.595 99.7011 38.6547 99.7011 39.8952C99.7011 41.7353 98.9391 43.1606 97.4172 44.1711C95.8953 45.1815 93.6922 45.6868 90.8079 45.6868H78.9693V24.6829H90.2074C93.011 24.6829 95.1295 25.1822 96.5628 26.1829C97.9941 27.1835 98.7107 28.5125 98.7107 30.1737C98.7107 31.1547 98.4646 32.0335 97.9744 32.8139C97.4842 33.5944 96.7577 34.2235 95.7969 34.7032C97.0372 35.1632 97.998 35.8336 98.6792 36.7143ZM85.9409 29.6331V32.753H89.2466C90.7882 32.753 91.56 32.234 91.56 31.192C91.56 30.1521 90.7882 29.6311 89.2466 29.6311H85.9409V29.6331ZM92.5503 39.0833C92.5503 37.9843 91.7687 37.4338 90.2074 37.4338H85.9409V40.7346H90.2074C91.7687 40.7346 92.5503 40.1842 92.5503 39.0833Z" fill="#9FA09F"/>
<path d="M119.382 39.0538H107.964C108.204 39.673 108.604 40.1488 109.165 40.4791C109.726 40.8093 110.427 40.9745 111.268 40.9745C111.989 40.9745 112.595 40.884 113.085 40.7051C113.575 40.5243 114.111 40.2156 114.694 39.7753L118.24 43.3454C116.637 45.1049 114.243 45.9856 111.059 45.9856C109.077 45.9856 107.334 45.6219 105.832 44.8906C104.33 44.1612 103.168 43.1449 102.347 41.8454C101.526 40.5459 101.115 39.0852 101.115 37.4653C101.115 35.8257 101.52 34.3591 102.331 33.0695C103.143 31.7799 104.255 30.7753 105.667 30.0538C107.078 29.3323 108.665 28.9745 110.429 28.9745C112.091 28.9745 113.609 29.3048 114.981 29.9653C116.353 30.6259 117.444 31.5951 118.255 32.8749C119.067 34.1547 119.472 35.6861 119.472 37.4653C119.472 37.5636 119.443 38.0944 119.382 39.0538ZM108.746 34.1645C108.285 34.5439 107.984 35.0846 107.844 35.7844H113.132C112.993 35.1042 112.691 34.5695 112.231 34.1802C111.77 33.791 111.189 33.5944 110.488 33.5944C109.787 33.5944 109.205 33.7831 108.746 34.1645Z" fill="#9FA09F"/>
<path d="M135.126 30.909C136.648 32.1986 137.41 34.1842 137.41 36.8637V45.6848H131.1V43.5243C130.318 45.1639 128.767 45.9837 126.444 45.9837C125.14 45.9837 124.034 45.7596 123.124 45.3094C122.213 44.8592 121.522 44.2497 121.051 43.4791C120.581 42.7084 120.344 41.8434 120.344 40.8841C120.344 39.2641 120.964 38.0335 122.207 37.194C123.449 36.3546 125.331 35.9339 127.855 35.9339H130.59C130.37 34.654 129.338 34.0132 127.495 34.0132C126.755 34.0132 126.003 34.1291 125.241 34.3572C124.479 34.5872 123.829 34.9018 123.288 35.3028L121.124 30.8343C122.065 30.2543 123.201 29.8002 124.534 29.4699C125.867 29.1396 127.194 28.9745 128.515 28.9745C131.399 28.9725 133.602 29.6193 135.126 30.909ZM129.777 41.5151C130.157 41.2556 130.438 40.8664 130.618 40.3454V39.2052H128.934C127.552 39.2052 126.861 39.6652 126.861 40.5852C126.861 40.9647 127.007 41.2812 127.296 41.5308C127.586 41.7805 127.981 41.9063 128.483 41.9063C128.966 41.9044 129.397 41.7746 129.777 41.5151Z" fill="#9FA09F"/>
<path d="M152.131 28.9724V34.9724C151.59 34.8918 151.089 34.8525 150.629 34.8525C148.306 34.8525 147.144 36.032 147.144 38.3931V45.6828H140.353V29.2712H146.813V31.0406C148.016 29.6624 149.788 28.9724 152.131 28.9724Z" fill="#9FA09F"/>
<path d="M157.736 44.9044C156.263 44.1848 155.112 43.1743 154.281 41.8749C153.45 40.5754 153.035 39.1049 153.035 37.4653C153.035 35.8257 153.45 34.3592 154.281 33.0695C155.112 31.7799 156.263 30.7753 157.736 30.0538C159.209 29.3343 160.876 28.9745 162.739 28.9745C164.741 28.9745 166.454 29.405 167.878 30.2641C169.299 31.1252 170.282 32.3146 170.823 33.8342L165.564 36.4135C164.922 34.9725 163.971 34.253 162.709 34.253C161.908 34.253 161.243 34.5341 160.711 35.0924C160.179 35.6527 159.916 36.443 159.916 37.4633C159.916 38.5033 160.181 39.3034 160.711 39.8637C161.243 40.424 161.908 40.7032 162.709 40.7032C163.971 40.7032 164.922 39.9837 165.564 38.5426L170.823 41.1219C170.282 42.6416 169.301 43.8329 167.878 44.692C166.456 45.5531 164.743 45.9817 162.739 45.9817C160.874 45.9837 159.207 45.6239 157.736 44.9044Z" fill="#9FA09F"/>
<path d="M186.353 30.9088C187.875 32.1985 188.637 34.1841 188.637 36.8636V45.6847H182.327V43.5242C181.545 45.1638 179.994 45.9836 177.671 45.9836C176.367 45.9836 175.261 45.7594 174.351 45.3092C173.44 44.859 172.748 44.2496 172.278 43.479C171.807 42.7083 171.571 41.8433 171.571 40.8839C171.571 39.264 172.191 38.0334 173.434 37.1939C174.676 36.3545 176.558 35.9337 179.082 35.9337H181.817C181.596 34.6539 180.565 34.013 178.722 34.013C177.982 34.013 177.23 34.129 176.468 34.3571C175.706 34.5871 175.056 34.9016 174.515 35.3027L172.351 30.8322C173.292 30.2522 174.428 29.7981 175.761 29.4678C177.094 29.1375 178.421 28.9724 179.742 28.9724C182.628 28.9724 184.831 29.6192 186.353 30.9088ZM181.006 41.515C181.386 41.2555 181.667 40.8663 181.846 40.3453V39.205H180.163C178.781 39.205 178.09 39.6651 178.09 40.5851C178.09 40.9645 178.236 41.2811 178.525 41.5307C178.814 41.7804 179.21 41.9062 179.712 41.9062C180.195 41.9043 180.626 41.7745 181.006 41.515Z" fill="#9FA09F"/>
<path d="M203.691 45.1147C202.669 45.6946 201.277 45.9856 199.515 45.9856C197.211 45.9856 195.437 45.4312 194.197 44.3205C192.955 43.2097 192.334 41.5446 192.334 39.325V35.1239H190.08V30.1737H192.334V25.5833H199.125V30.1737H202.49V35.1239H199.125V39.2641C199.125 39.7635 199.255 40.1547 199.515 40.4338C199.775 40.715 200.115 40.8545 200.536 40.8545C201.117 40.8545 201.627 40.7051 202.068 40.4043L203.691 45.1147Z" fill="#9FA09F"/>
<path d="M207.687 45.5334C206.325 45.2326 205.224 44.8433 204.382 44.3637L206.244 39.8931C207.006 40.3532 207.906 40.7129 208.949 40.9724C209.991 41.2319 211.003 41.3617 211.983 41.3617C212.765 41.3617 213.31 41.2968 213.621 41.1671C213.932 41.0373 214.088 40.8427 214.088 40.5812C214.088 40.3217 213.893 40.1408 213.501 40.0406C213.111 39.9403 212.475 39.8401 211.593 39.7398C210.251 39.5806 209.109 39.3761 208.168 39.1245C207.227 38.8748 206.4 38.3892 205.689 37.6697C204.978 36.9502 204.622 35.92 204.622 34.5792C204.622 33.5196 204.943 32.5701 205.583 31.7287C206.223 30.8892 207.179 30.2188 208.451 29.7175C209.723 29.2182 211.251 28.9685 213.033 28.9685C214.275 28.9685 215.492 29.0845 216.683 29.3125C217.874 29.5426 218.892 29.8787 219.733 30.3171L217.87 34.7876C216.427 33.9875 214.846 33.5884 213.123 33.5884C211.641 33.5884 210.9 33.8479 210.9 34.3689C210.9 34.6284 211.101 34.8152 211.501 34.9233C211.901 35.0334 212.533 35.1376 213.393 35.2378C214.736 35.399 215.872 35.6074 216.803 35.8689C217.734 36.1284 218.555 36.6179 219.266 37.3394C219.977 38.0589 220.333 39.0891 220.333 40.4298C220.333 41.4502 220.012 42.38 219.372 43.2195C218.73 44.0589 217.77 44.7293 216.488 45.2306C215.206 45.73 213.653 45.9796 211.832 45.9796C210.43 45.9836 209.048 45.8342 207.687 45.5334Z" fill="#9FA09F"/>
</svg>
