<?xml version="1.0" encoding="utf-8"?>
<!-- Generator: Adobe Illustrator 23.0.1, SVG Export Plug-In . SVG Version: 6.00 Build 0)  -->
<svg version="1.1" id="Layer_1" xmlns="http://www.w3.org/2000/svg" xmlns:xlink="http://www.w3.org/1999/xlink" x="0px" y="0px"
	 viewBox="0 0 1219 436" style="enable-background:new 0 0 1219 436;" xml:space="preserve">
<path d="M219.07,326.48c6.8-0.56,13.19-2.18,18.99-5.23c2.51-1.32,4.81-3.46,6.64-5.99c6.63-9.17,5.9-19.57,5.37-29.95
	c-0.09-1.75-0.44-3.5-0.77-5.23c-0.21-1.13,0.18-1.85,1.14-2.39c1.97-1.12,3.16-2.84,4.21-4.86c2.21-4.25,3.85-8.68,5.57-13.14
	c2.42-6.28,3.22-12.86,4.92-19.26c2.91-10.93,3.34-22.22,5.04-33.31c1.21-7.9,1.17-15.8,1.73-23.69c0.3-4.14-1.19-7.45-3.8-10.42
	c-1.58-1.8-6.35-2.24-8.63-0.42c-1.59,1.27-3.4,2-5.04,3.1c-6.45,4.32-12.98,8.52-18.99,13.47c-4.26,3.51-8.88,6.66-12.82,10.49
	c-3.76,3.65-7.76,7.07-11.49,10.77c-3.6,3.58-6.98,7.38-10.39,11.1c-2.4,2.62-4.65,5.6-6.01,9.01c-0.5,1.25-1.17,1.88-2.55,1.55
	c-0.42-0.1-0.89-0.14-1.32-0.07c-3.65,0.59-5.56-0.65-7.53-4.21c-2.48-4.47-6.05-8.47-9.82-12.2c-2.04-2.02-4.1-4.16-6.08-6.28
	c-2.35-2.51-5.21-4.61-7.59-7.05c-2.25-2.31-5.14-3.78-7.15-6.37c-1.63-2.1-4.12-3.47-6.23-5.03c-3.48-2.57-6.94-5.24-10.45-7.76
	c-5.1-3.67-10.49-6.84-15.62-10.44c-3.14-2.2-7.25-1.32-9.8,1.56c-2.41,2.72-3.03,5.77-2.88,9.18c0.29,6.45,0.05,12.98,0.98,19.33
	c1.69,11.5,2.19,23.2,4.85,34.52c1.5,6.38,2.39,12.93,4.54,19.14c2.19,6.35,4.45,12.71,7.95,18.51c0.23,0.38,0.46,0.89,0.82,1.03
	c4.51,1.71,3.16,5.3,2.81,8.58c-0.79,7.33-0.86,14.65,0.97,21.86c1.2,4.72,3.73,8.61,7.25,12.03c3.78,3.66,8.44,5,13.28,6.33
	c3.03,0.83,6.03,1.54,9.45,1.67c-3.67,4.62-7.36,8.97-10.7,13.58c-2.24,3.08-4.54,6.14-6.77,9.21c-2.65,3.64-4.98,7.47-7.4,11.22
	c-2.96,4.58-5.39,9.52-7.62,14.55c-1.79,4.04-2.94,8.14-3.7,12.43c-1.3,7.32,0.39,13.72,5.71,19.05c0.72,0.72,1.54,1.41,1.61,2.57
	c-0.13,0.06-0.27,0.19-0.41,0.19c-21.33-0.02-42.65-0.08-63.98-0.04c-3.68,0.01-6.45-1.74-9.01-3.99c-1.65-1.44-1.97-7.68-0.53-9.6
	c2.72-3.62,6.23-6.27,10.24-8.45c5.01-2.73,10.28-4.87,15.46-7.19c2.54-1.14,5.31-1.76,8.11-2.66c-3.2-5.34-6.51-10.55-9.62-15.86
	c-5.38-9.17-9.81-18.69-13.63-28.59c-1.9-4.93-2.83-10.05-4.49-14.98c-1.61-4.75-2.03-9.55-2-14.44c0.02-5.04,1.76-7.03,6.77-7.86
	c1.74-0.29,2.44-1.1,2.33-2.84c-0.27-4.1-3.08-9.81-8.18-11.31c-5.89-1.73-7.42-4.71-7.74-10.78c-0.43-8-0.76-16.13,2.39-23.79
	c2.23-5.41,3.57-11.17,6.55-16.28c0.61-1.05,0.91-2.29,1.36-3.43c1.82-4.6,4.14-8.99,6.27-13.44c2.91-6.06,5.99-12.08,9.2-18
	c3.26-6,6.44-12.05,9.79-18.01c2.91-5.18,5.79-10.38,8.7-15.56c2.52-4.5,4.85-9.09,7.32-13.61c0.69-1.26,0.77-2.7,1.12-4.06
	c1.85-7.1,3.41-14.29,5.69-21.25c1.65-5.04,2.8-10.27,4.87-15.12c1.33-3.14,2.03-6.45,3.36-9.54c2.39-5.53,4.54-11.21,8.48-15.92
	c2.2-2.63,4.42-5.24,6.68-7.91c-3.41-1.3-6.25-3.99-9.58-5.91c-1.42-0.82-1.87-2.62-2.11-4.12c-0.69-4.38,0.38-8.33,2.87-12.12
	c2.06-3.14,4.24-6.19,6.92-8.71c2.21-2.07,4.19-4.71,7.33-5.56c2.48-0.67,4.49-0.02,6.68,1.68c4.94,3.83,7.76,8.93,10.33,14.41
	c0.87,1.84,2,3.6,2.67,5.56c0.33,0.96,0.89,1.15,1.82,0.89c4.91-1.38,10.02-1.8,15-2.87c4.47-0.96,9.15-0.68,13.75-0.62
	c7.36,0.09,14.49,1.71,21.62,3.23c2.48,0.53,3.29-0.15,4.37-2.36c1.98-4.07,3.6-8.32,6.43-12.03c1.87-2.45,3.84-4.62,6.18-6.61
	c2.41-2.05,6.53-1.9,8.96,0.17c2.63,2.24,5.34,4.51,7.47,7.12c3.48,4.27,7.11,8.71,7.22,14.73c0.07,3.52-0.76,6.47-4.17,8.4
	c-2.7,1.53-5.06,3.64-7.96,4.8c3.09,3.25,6.13,6.51,8.59,10.27c4.12,6.28,6.34,13.34,8.94,20.31c2.42,6.5,4.12,13.21,6.61,19.67
	c1.41,3.67,1.72,7.76,3.06,11.47c1.59,4.44,1.44,9.41,3.86,13.49c2.23,3.76,3.62,7.96,6.33,11.46c0.89,1.15,1.28,2.67,1.98,3.99
	c3.32,6.26,7,12.32,10.28,18.61c3.11,5.97,6.35,11.87,9.47,17.84c3.13,5.98,6.14,11.99,9.06,18.07c3.61,7.51,6.73,15.18,9.83,22.91
	c4.01,10.01,5.58,20,3.56,30.61c-0.84,4.42-3.51,6.96-7.58,8.04c-4.89,1.3-7.83,7.31-7.96,11.44c-0.05,1.69,0.78,2.31,2.32,2.58
	c5.02,0.87,6.58,2.83,6.83,7.86c0.31,6.41-1.58,12.42-2.99,18.55c-1.52,6.61-4.15,12.8-6.67,19c-2.47,6.08-5.51,11.96-8.68,17.71
	c-3.29,5.98-7.01,11.72-10.59,17.53c-0.18,0.3-0.8,0.32-0.84,0.92c0.56,0.78,1.55,0.64,2.34,0.89c7.87,2.5,15.32,5.96,22.59,9.81
	c3.42,1.81,6.4,4.35,8.72,7.53c1.86,2.56,1.06,8.2-1.23,10.4c-2.48,2.38-5.31,3.43-8.71,3.43c-21.24-0.03-42.47-0.02-63.81-0.02
	c-0.11-1.02,0.52-1.68,1.18-2.31c5.94-5.68,7.45-12.64,5.98-20.49c-1.44-7.7-4.89-14.55-8.59-21.36c-2.29-4.21-4.83-8.3-7.51-12.19
	c-1.92-2.78-3.83-5.69-6.01-8.37c-2.5-3.07-4.93-6.29-7.28-9.52C223.62,332.06,221.37,329.39,219.07,326.48z"/>
<g>
	<path d="M552,222.23c3.46,4.48,5.19,9.87,5.19,16.18c0,9.36-3.87,16.61-11.6,21.75c-7.73,5.14-18.92,7.71-33.57,7.71h-60.13V161.03
		h57.08c14.24,0,25,2.54,32.28,7.63c7.27,5.09,10.91,11.85,10.91,20.3c0,4.99-1.25,9.46-3.74,13.43c-2.49,3.97-6.18,7.17-11.06,9.61
		C543.66,214.34,548.54,217.75,552,222.23z M487.3,186.21v15.87h16.79c7.83,0,11.75-2.64,11.75-7.94c0-5.29-3.92-7.94-11.75-7.94
		H487.3z M520.87,234.28c0-5.59-3.97-8.39-11.9-8.39H487.3v16.79h21.67C516.9,242.68,520.87,239.88,520.87,234.28z"/>
	<path d="M657.15,234.13h-57.99c1.22,3.15,3.25,5.57,6.1,7.25c2.85,1.68,6.41,2.52,10.68,2.52c3.66,0,6.74-0.46,9.23-1.37
		c2.49-0.92,5.21-2.49,8.17-4.73l18.01,18.16c-8.14,8.95-20.3,13.43-36.47,13.43c-10.07,0-18.92-1.85-26.55-5.57
		c-7.63-3.71-13.53-8.88-17.7-15.49c-4.17-6.61-6.26-14.04-6.26-22.28c0-8.34,2.06-15.8,6.18-22.36
		c4.12-6.56,9.77-11.67,16.94-15.34s15.23-5.49,24.19-5.49c8.44,0,16.15,1.68,23.12,5.04c6.97,3.36,12.51,8.29,16.63,14.8
		c4.12,6.51,6.18,14.3,6.18,23.35C657.61,226.55,657.46,229.25,657.15,234.13z M603.13,209.26c-2.34,1.93-3.87,4.68-4.58,8.24h26.86
		c-0.71-3.46-2.24-6.18-4.58-8.16c-2.34-1.98-5.29-2.98-8.85-2.98C608.42,206.36,605.46,207.32,603.13,209.26z"/>
	<path d="M737.12,192.7c7.73,6.56,11.6,16.66,11.6,30.29v44.87h-32.05v-10.99c-3.97,8.34-11.85,12.51-23.65,12.51
		c-6.62,0-12.24-1.14-16.86-3.43c-4.63-2.29-8.14-5.39-10.53-9.31c-2.39-3.92-3.59-8.32-3.59-13.2c0-8.24,3.15-14.5,9.46-18.77
		c6.31-4.27,15.87-6.41,28.69-6.41h13.89c-1.12-6.51-6.36-9.77-15.72-9.77c-3.76,0-7.58,0.59-11.45,1.75
		c-3.87,1.17-7.17,2.77-9.92,4.81L666,192.32c4.78-2.95,10.55-5.26,17.32-6.94c6.77-1.68,13.51-2.52,20.22-2.52
		C718.19,182.85,729.38,186.14,737.12,192.7z M709.95,246.65c1.93-1.32,3.36-3.3,4.27-5.95v-5.8h-8.55
		c-7.02,0-10.53,2.34-10.53,7.02c0,1.93,0.74,3.54,2.21,4.81c1.47,1.27,3.48,1.91,6.03,1.91
		C705.83,248.63,708.02,247.97,709.95,246.65z"/>
	<path d="M823.49,182.85v30.52c-2.75-0.41-5.29-0.61-7.63-0.61c-11.8,0-17.7,6-17.7,18.01v37.08h-34.49v-83.48h32.81v9
		C802.59,186.36,811.59,182.85,823.49,182.85z"/>
	<path d="M851.96,263.89c-7.48-3.66-13.33-8.8-17.55-15.41c-4.22-6.61-6.33-14.09-6.33-22.43c0-8.34,2.11-15.8,6.33-22.36
		c4.22-6.56,10.07-11.67,17.55-15.34c7.48-3.66,15.95-5.49,25.41-5.49c10.17,0,18.87,2.19,26.1,6.56
		c7.22,4.38,12.21,10.43,14.96,18.16l-26.71,13.12c-3.26-7.33-8.09-10.99-14.5-10.99c-4.07,0-7.45,1.43-10.15,4.27
		c-2.7,2.85-4.04,6.87-4.04,12.06c0,5.29,1.35,9.36,4.04,12.21c2.7,2.85,6.08,4.27,10.15,4.27c6.41,0,11.24-3.66,14.5-10.99
		l26.71,13.12c-2.75,7.73-7.73,13.79-14.96,18.16c-7.22,4.38-15.92,6.56-26.1,6.56C867.9,269.38,859.43,267.55,851.96,263.89z"/>
	<path d="M997.31,192.7c7.73,6.56,11.6,16.66,11.6,30.29v44.87h-32.05v-10.99c-3.97,8.34-11.85,12.51-23.65,12.51
		c-6.62,0-12.24-1.14-16.86-3.43c-4.63-2.29-8.14-5.39-10.53-9.31c-2.39-3.92-3.59-8.32-3.59-13.2c0-8.24,3.15-14.5,9.46-18.77
		c6.31-4.27,15.87-6.41,28.69-6.41h13.89c-1.12-6.51-6.36-9.77-15.72-9.77c-3.76,0-7.58,0.59-11.45,1.75
		c-3.87,1.17-7.17,2.77-9.92,4.81l-10.99-22.74c4.78-2.95,10.55-5.26,17.32-6.94c6.77-1.68,13.51-2.52,20.22-2.52
		C978.39,182.85,989.58,186.14,997.31,192.7z M970.15,246.65c1.93-1.32,3.36-3.3,4.27-5.95v-5.8h-8.55
		c-7.02,0-10.53,2.34-10.53,7.02c0,1.93,0.74,3.54,2.21,4.81c1.47,1.27,3.48,1.91,6.03,1.91
		C966.03,248.63,968.22,247.97,970.15,246.65z"/>
	<path d="M1085.37,264.96c-5.19,2.95-12.26,4.43-21.21,4.43c-11.7,0-20.71-2.82-27.01-8.47c-6.31-5.65-9.46-14.12-9.46-25.41v-21.37
		h-11.45v-25.18h11.45v-23.35h34.49v23.35h17.09v25.18h-17.09v21.06c0,2.54,0.66,4.53,1.98,5.95c1.32,1.43,3.05,2.14,5.19,2.14
		c2.95,0,5.54-0.76,7.78-2.29L1085.37,264.96z"/>
	<path d="M1105.67,267.09c-6.92-1.53-12.51-3.51-16.79-5.95l9.46-22.74c3.87,2.34,8.44,4.17,13.74,5.49
		c5.29,1.32,10.43,1.98,15.41,1.98c3.97,0,6.74-0.33,8.32-0.99c1.58-0.66,2.37-1.65,2.37-2.98c0-1.32-0.99-2.24-2.98-2.75
		c-1.98-0.51-5.21-1.02-9.69-1.53c-6.82-0.81-12.62-1.85-17.4-3.13c-4.78-1.27-8.98-3.74-12.59-7.4c-3.61-3.66-5.42-8.9-5.42-15.72
		c0-5.39,1.63-10.22,4.88-14.5c3.25-4.27,8.11-7.68,14.57-10.23c6.46-2.54,14.22-3.81,23.27-3.81c6.31,0,12.49,0.59,18.54,1.75
		c6.05,1.17,11.22,2.88,15.49,5.11l-9.46,22.74c-7.33-4.07-15.36-6.1-24.11-6.1c-7.53,0-11.29,1.32-11.29,3.97
		c0,1.32,1.02,2.27,3.05,2.82c2.03,0.56,5.24,1.09,9.61,1.6c6.82,0.82,12.59,1.88,17.32,3.21c4.73,1.32,8.9,3.81,12.51,7.48
		c3.61,3.66,5.42,8.9,5.42,15.72c0,5.19-1.63,9.92-4.88,14.19c-3.26,4.27-8.14,7.68-14.65,10.23c-6.51,2.54-14.4,3.81-23.65,3.81
		C1119.6,269.38,1112.58,268.62,1105.67,267.09z"/>
</g>
</svg>
